<svg width="265" height="355" viewBox="0 0 265 355" fill="none" xmlns="http://www.w3.org/2000/svg">
<path d="M44.438 318.345L37.0289 317.119L36.9842 315.766L39.1922 315.845L46.4973 317.103L46.5373 318.315L44.438 318.345ZM37.1441 320.607L44.4589 317.919L46.5106 317.507L46.5553 318.859L37.2126 322.68L37.1441 320.607ZM44.2006 312.748L36.8615 312.051L36.7933 309.986L46.3058 311.305L46.3505 312.658L44.2006 312.748ZM36.9767 315.538L44.1544 312.41L46.3238 311.85L46.3638 313.062L39.1971 316.259L37.0222 316.917L36.9767 315.538Z" fill="#1A191D"/>
<path d="M47.3406 296.409C47.2747 297.109 47.1009 297.742 46.8192 298.307C46.5321 298.866 46.1619 299.342 45.7086 299.737C45.2558 300.126 44.7383 300.424 44.156 300.632C43.5737 300.839 42.9574 300.942 42.307 300.939L41.9555 300.937C41.2113 300.934 40.5477 300.823 39.9645 300.604C39.3813 300.386 38.8939 300.083 38.5024 299.696C38.1051 299.309 37.8168 298.852 37.6377 298.326C37.4586 297.8 37.3979 297.231 37.4555 296.619C37.5192 295.942 37.6891 295.35 37.9654 294.844C38.2417 294.337 38.6034 293.919 39.0507 293.588C39.4927 293.252 40.0056 293.003 40.5893 292.842C41.1736 292.676 41.8085 292.594 42.494 292.597L43.3993 292.601L42.711 299.916L41.1905 299.909L41.6828 294.677L41.5159 294.676C41.1339 294.686 40.7693 294.76 40.4222 294.899C40.0756 295.031 39.7866 295.237 39.5552 295.516C39.3237 295.795 39.1861 296.168 39.1422 296.635C39.1092 296.985 39.156 297.297 39.2826 297.572C39.4038 297.841 39.5965 298.067 39.8608 298.249C40.125 298.431 40.4517 298.573 40.8408 298.674C41.2246 298.769 41.6625 298.817 42.1547 298.82L42.5063 298.821C42.9223 298.823 43.3142 298.769 43.6821 298.66C44.0446 298.545 44.3681 298.377 44.6527 298.157C44.9372 297.936 45.1705 297.669 45.3524 297.354C45.5286 297.04 45.6356 296.682 45.6734 296.279C45.7212 295.772 45.6612 295.319 45.4934 294.921C45.3257 294.524 45.068 294.178 44.7205 293.885L45.9061 292.779C46.1857 292.984 46.4478 293.251 46.6925 293.579C46.9313 293.907 47.1134 294.307 47.2389 294.781C47.3649 295.248 47.3988 295.791 47.3406 296.409Z" fill="#1A191D"/>
<path d="M44.3154 270.506L51.6823 272.274L51.0627 274.3L41.8156 272.08L42.3992 270.172L44.3154 270.506ZM46.6166 271.41L46.3972 272.097C45.7591 271.944 45.1934 271.724 44.7002 271.437C44.2069 271.15 43.8071 270.808 43.5008 270.41C43.1889 270.01 42.9932 269.56 42.9138 269.06C42.8304 268.553 42.8796 268.002 43.0613 267.408C43.1881 266.993 43.3665 266.63 43.5964 266.319C43.8223 266 44.1049 265.746 44.4441 265.557C44.7851 265.362 45.1812 265.247 45.6326 265.21C46.0856 265.169 46.6028 265.218 47.1839 265.357L53.3458 266.836L52.7262 268.862L46.7437 267.426C46.2936 267.318 45.9198 267.3 45.6223 267.373C45.3265 267.441 45.0867 267.585 44.9031 267.805C44.7154 268.019 44.5702 268.294 44.4673 268.63C44.3508 269.011 44.3254 269.353 44.3913 269.658C44.4589 269.957 44.5951 270.221 44.8001 270.451C45.0051 270.68 45.2636 270.875 45.5758 271.034C45.8879 271.193 46.2349 271.318 46.6166 271.41ZM47.7949 265.639L47.718 266.64C47.1596 266.506 46.6557 266.304 46.2063 266.034C45.7529 265.757 45.3837 265.424 45.0985 265.037C44.8093 264.643 44.6241 264.199 44.543 263.704C44.462 263.209 44.5088 262.676 44.6837 262.105C44.8259 261.64 45.0183 261.241 45.2607 260.908C45.4992 260.568 45.7946 260.302 46.1469 260.11C46.4993 259.918 46.9154 259.808 47.3952 259.778C47.8694 259.748 48.4141 259.807 49.0294 259.954L55.0119 261.39L54.3897 263.424L48.3987 261.986C47.9315 261.874 47.5491 261.854 47.2516 261.927C46.9558 261.995 46.7226 262.137 46.552 262.355C46.3758 262.571 46.2362 262.847 46.1334 263.184C46.0374 263.497 46.0124 263.789 46.0583 264.059C46.1003 264.321 46.2018 264.559 46.3629 264.772C46.5183 264.984 46.7171 265.164 46.9591 265.312C47.2029 265.455 47.4815 265.564 47.7949 265.639Z" fill="#1A191D"/>
<path d="M58.9185 247.228L54.7202 245.513C54.4056 245.384 54.109 245.33 53.8305 245.349C53.552 245.368 53.2984 245.467 53.0699 245.645C52.8437 245.819 52.6534 246.076 52.4989 246.418C52.3565 246.733 52.2876 247.027 52.2923 247.301C52.297 247.575 52.3626 247.814 52.489 248.017C52.6155 248.221 52.7954 248.37 53.0286 248.465L52.1596 250.387C51.8124 250.245 51.5135 250.025 51.2629 249.727C51.0123 249.428 50.8308 249.07 50.7182 248.65C50.6057 248.231 50.5752 247.773 50.6267 247.275C50.6782 246.778 50.8271 246.257 51.0733 245.712C51.3678 245.061 51.7398 244.529 52.1891 244.118C52.6408 243.702 53.1569 243.442 53.7375 243.337C54.3151 243.225 54.9401 243.307 55.6127 243.582L59.5263 245.18C59.9277 245.344 60.3005 245.465 60.6446 245.542C60.9858 245.612 61.2971 245.641 61.5786 245.63L61.7088 245.683L60.8144 247.661C60.5618 247.665 60.2608 247.628 59.9112 247.548C59.5586 247.461 59.2277 247.354 58.9185 247.228ZM55.4571 245.482L56.6767 245.961L56.0502 247.347C55.8885 247.704 55.7813 248.034 55.7287 248.335C55.6707 248.634 55.6657 248.901 55.7138 249.135C55.7619 249.37 55.8577 249.57 56.0011 249.737C56.1444 249.903 56.3328 250.033 56.566 250.129C56.7992 250.224 57.0376 250.258 57.2812 250.231C57.5193 250.202 57.7385 250.108 57.9387 249.949C58.1413 249.785 58.309 249.557 58.4418 249.263C58.6204 248.868 58.6948 248.49 58.6648 248.13C58.6319 247.763 58.5347 247.445 58.3733 247.176C58.2064 246.906 58.0169 246.721 57.8048 246.621L58.9578 246.352C59.1512 246.507 59.3404 246.714 59.5254 246.973C59.7103 247.232 59.8626 247.535 59.9824 247.881C60.0992 248.22 60.1523 248.592 60.1419 248.999C60.1338 249.401 60.0284 249.826 59.8256 250.274C59.5698 250.84 59.2277 251.298 58.7995 251.648C58.3659 251.996 57.8971 252.216 57.3931 252.307C56.8837 252.396 56.3795 252.339 55.8805 252.135C55.414 251.945 55.0404 251.691 54.7596 251.374C54.4759 251.049 54.288 250.669 54.196 250.232C54.1064 249.791 54.1103 249.299 54.2076 248.757C54.2995 248.213 54.4879 247.626 54.7727 246.996L55.4571 245.482Z" fill="#1A191D"/>
<path d="M54.9182 229.703L66.6599 236.365L65.5843 238.2L53.8426 231.538L54.9182 229.703ZM61.3754 226.577L63.2724 232.412L64.1438 235.514L62.3044 235.107L61.3288 232.583L60.0821 228.783L61.3754 226.577ZM68.5844 233.082L63.141 233.54L62.5247 231.655L69.8244 230.967L68.5844 233.082Z" fill="#1A191D"/>
<path d="M76.7872 221.086C76.3699 221.652 75.9013 222.095 75.3813 222.415C74.8602 222.727 74.3151 222.918 73.7462 222.988C73.1807 223.054 72.6106 223.003 72.0358 222.835C71.4611 222.667 70.9138 222.387 70.394 221.996L70.113 221.785C69.5183 221.337 69.0441 220.845 68.6904 220.308C68.3367 219.771 68.1037 219.218 67.9914 218.65C67.8744 218.078 67.881 217.511 68.0114 216.949C68.1417 216.387 68.3895 215.859 68.7546 215.364C69.158 214.817 69.6023 214.407 70.0875 214.134C70.5726 213.861 71.0806 213.715 71.6113 213.696C72.1408 213.669 72.6813 213.761 73.233 213.97C73.788 214.175 74.3395 214.483 74.8874 214.895L75.6109 215.44L71.2501 221.353L70.0349 220.439L73.1543 216.209L73.0208 216.109C72.7094 215.889 72.3786 215.736 72.0282 215.648C71.6813 215.556 71.3424 215.561 71.0116 215.665C70.6808 215.768 70.3763 216.008 70.0981 216.385C69.8894 216.668 69.7642 216.966 69.7226 217.279C69.6797 217.584 69.7167 217.894 69.8337 218.21C69.9507 218.525 70.1388 218.842 70.3981 219.162C70.6562 219.473 70.982 219.777 71.3753 220.073L71.6563 220.284C71.9888 220.534 72.3309 220.722 72.6826 220.847C73.0332 220.964 73.3799 221.012 73.7227 220.991C74.0656 220.971 74.3918 220.879 74.7014 220.716C75.0062 220.549 75.2786 220.303 75.5186 219.978C75.8211 219.567 76.0087 219.14 76.0813 218.696C76.1538 218.252 76.1272 217.8 76.0014 217.339L77.5278 217.09C77.6449 217.435 77.7162 217.822 77.7415 218.252C77.7622 218.678 77.6996 219.133 77.5537 219.617C77.4113 220.096 77.1558 220.586 76.7872 221.086Z" fill="#1A191D"/>
<path d="M92.7732 200.764L89.075 192.59L90.7141 191.023L95.1569 201.922C95.2474 202.16 95.3322 202.431 95.4115 202.736C95.4907 203.04 95.5286 203.365 95.5251 203.708C95.5297 204.052 95.4613 204.396 95.3199 204.742C95.1825 205.092 94.9422 205.431 94.5991 205.759C94.4635 205.889 94.3207 206.001 94.1705 206.096C94.0285 206.191 93.8908 206.278 93.7576 206.357L92.6888 205.144C92.735 205.108 92.7897 205.064 92.8529 205.011C92.9202 204.955 92.973 204.909 93.0111 204.872C93.2652 204.629 93.4481 204.394 93.5598 204.166C93.6754 203.942 93.7245 203.709 93.7072 203.466C93.6941 203.219 93.6218 202.94 93.4902 202.629L92.7732 200.764ZM86.1525 195.384L92.4622 199.191L94.2019 200.612L93.3892 201.912L84.5006 196.963L86.1525 195.384Z" fill="#1A191D"/>
<path d="M99.6434 189.533L99.5308 189.365C99.1492 188.796 98.8742 188.207 98.7059 187.598C98.5343 186.985 98.4764 186.384 98.5321 185.795C98.5893 185.198 98.7669 184.633 99.065 184.101C99.3645 183.561 99.7881 183.08 100.336 182.658C100.889 182.233 101.449 181.956 102.018 181.828C102.588 181.692 103.147 181.69 103.693 181.823C104.236 181.951 104.752 182.2 105.239 182.57C105.723 182.935 106.156 183.403 106.537 183.972L106.65 184.14C107.032 184.709 107.307 185.298 107.475 185.907C107.643 186.515 107.699 187.118 107.642 187.715C107.581 188.307 107.404 188.872 107.109 189.409C106.811 189.941 106.388 190.418 105.84 190.839C105.287 191.265 104.726 191.546 104.156 191.682C103.587 191.81 103.031 191.81 102.488 191.682C101.941 191.549 101.426 191.3 100.942 190.935C100.458 190.57 100.025 190.102 99.6434 189.533ZM101.209 188.073L101.322 188.241C101.56 188.596 101.82 188.905 102.102 189.168C102.383 189.431 102.678 189.624 102.987 189.748C103.295 189.873 103.611 189.913 103.935 189.871C104.258 189.829 104.58 189.684 104.9 189.438C105.212 189.198 105.435 188.923 105.571 188.611C105.712 188.296 105.777 187.962 105.766 187.61C105.754 187.257 105.678 186.895 105.535 186.525C105.398 186.152 105.21 185.787 104.971 185.432L104.859 185.264C104.624 184.914 104.365 184.611 104.082 184.357C103.8 184.094 103.501 183.9 103.185 183.774C102.873 183.645 102.556 183.602 102.232 183.645C101.91 183.679 101.591 183.817 101.275 184.06C100.96 184.303 100.733 184.585 100.596 184.904C100.459 185.216 100.399 185.55 100.413 185.908C100.428 186.266 100.506 186.63 100.648 187C100.788 187.365 100.975 187.723 101.209 188.073Z" fill="#1A191D"/>
<path d="M120.282 177.889L117.068 171.369L118.892 170.275L123.097 178.805L121.378 179.836L120.282 177.889ZM119.664 175.961L120.267 175.579C120.549 176.152 120.749 176.716 120.867 177.272C120.982 177.823 121.002 178.352 120.927 178.86C120.849 179.363 120.663 179.832 120.37 180.267C120.074 180.696 119.652 181.075 119.104 181.404C118.707 181.642 118.313 181.8 117.922 181.878C117.531 181.956 117.153 181.941 116.787 181.834C116.426 181.723 116.081 181.505 115.751 181.178C115.421 180.852 115.117 180.408 114.84 179.845L112.124 174.335L113.941 173.245L116.664 178.771C116.817 179.082 116.981 179.321 117.155 179.489C117.326 179.651 117.503 179.76 117.686 179.814C117.869 179.867 118.053 179.872 118.24 179.828C118.427 179.784 118.61 179.708 118.791 179.6C119.309 179.289 119.664 178.94 119.857 178.552C120.052 178.156 120.123 177.739 120.07 177.301C120.022 176.86 119.887 176.413 119.664 175.961Z" fill="#1A191D"/>
<path d="M130.54 166.162L133.139 173.41L131.22 174.307L128.01 165.355L129.841 164.499L130.54 166.162ZM132.544 163.168L133.192 165.029C133.068 165.061 132.934 165.104 132.792 165.158C132.656 165.209 132.521 165.265 132.388 165.327C132.059 165.481 131.788 165.666 131.574 165.882C131.358 166.092 131.198 166.328 131.093 166.59C130.992 166.843 130.942 167.118 130.942 167.414C130.943 167.709 130.992 168.018 131.089 168.34L130.663 168.578C130.461 168.015 130.327 167.469 130.261 166.94C130.195 166.41 130.203 165.914 130.285 165.451C130.372 164.985 130.541 164.574 130.792 164.219C131.048 163.861 131.39 163.582 131.82 163.381C131.937 163.326 132.066 163.279 132.206 163.239C132.352 163.196 132.465 163.173 132.544 163.168Z" fill="#1A191D"/>
<path d="M158.392 160.612L158.312 156.078C158.306 155.738 158.24 155.452 158.113 155.22C157.986 154.988 157.797 154.82 157.544 154.714C157.297 154.607 156.988 154.576 156.615 154.619C156.272 154.659 155.976 154.752 155.728 154.898C155.479 155.044 155.287 155.225 155.151 155.44C155.015 155.656 154.949 155.889 154.954 156.141L152.858 156.384C152.852 156.009 152.935 155.636 153.11 155.263C153.284 154.891 153.54 154.547 153.879 154.232C154.217 153.917 154.624 153.652 155.098 153.439C155.573 153.225 156.107 153.084 156.7 153.015C157.41 152.933 158.041 152.98 158.593 153.157C159.15 153.333 159.59 153.646 159.913 154.096C160.241 154.539 160.412 155.124 160.425 155.85L160.5 160.077C160.508 160.511 160.544 160.897 160.608 161.236C160.678 161.568 160.773 161.854 160.894 162.092L160.897 162.233L158.74 162.483C158.637 162.266 158.554 161.985 158.489 161.64C158.43 161.289 158.398 160.946 158.392 160.612ZM158.629 156.701L158.67 158.009L157.159 158.184C156.769 158.229 156.427 158.307 156.131 158.418C155.836 158.522 155.59 158.656 155.395 158.82C155.199 158.983 155.054 159.171 154.958 159.381C154.863 159.592 154.818 159.823 154.822 160.075C154.827 160.327 154.889 160.552 155.009 160.749C155.129 160.941 155.301 161.082 155.524 161.174C155.753 161.265 156.028 161.291 156.348 161.254C156.778 161.204 157.152 161.073 157.469 160.86C157.792 160.641 158.044 160.391 158.226 160.112C158.407 159.827 158.502 159.566 158.509 159.331L159.207 160.192C159.142 160.44 159.027 160.712 158.863 161.007C158.699 161.302 158.482 161.591 158.213 161.875C157.95 162.152 157.631 162.391 157.255 162.593C156.885 162.795 156.456 162.924 155.967 162.98C155.35 163.052 154.798 162.993 154.31 162.802C153.823 162.607 153.439 162.314 153.158 161.923C152.876 161.528 152.731 161.06 152.722 160.521C152.713 160.017 152.798 159.561 152.977 159.153C153.162 158.738 153.436 158.378 153.798 158.072C154.166 157.765 154.616 157.513 155.149 157.316C155.682 157.113 156.292 156.972 156.979 156.893L158.629 156.701Z" fill="#1A191D"/>
<path d="M174.026 157.345L171.798 146.031L173.834 145.413L176.441 158.659L174.599 159.218L174.026 157.345ZM167.587 156.511L167.551 156.33C167.412 155.623 167.367 154.955 167.415 154.325C167.462 153.689 167.599 153.114 167.824 152.601C168.049 152.082 168.361 151.643 168.759 151.285C169.157 150.92 169.633 150.654 170.189 150.485C170.738 150.319 171.242 150.281 171.7 150.374C172.158 150.466 172.572 150.673 172.944 150.992C173.315 151.306 173.643 151.719 173.928 152.229C174.211 152.734 174.457 153.318 174.664 153.98L174.778 154.557C174.836 155.246 174.833 155.893 174.768 156.498C174.703 157.103 174.564 157.65 174.352 158.141C174.139 158.632 173.844 159.051 173.467 159.397C173.095 159.741 172.632 159.998 172.077 160.166C171.527 160.333 171.008 160.366 170.518 160.264C170.035 160.161 169.597 159.944 169.204 159.612C168.812 159.28 168.478 158.852 168.203 158.326C167.926 157.795 167.721 157.19 167.587 156.511ZM169.578 155.715L169.614 155.896C169.698 156.322 169.812 156.707 169.957 157.053C170.108 157.397 170.293 157.685 170.511 157.918C170.728 158.144 170.981 158.299 171.271 158.382C171.565 158.457 171.894 158.439 172.258 158.329C172.718 158.189 173.076 157.971 173.333 157.674C173.589 157.377 173.767 157.027 173.866 156.625C173.97 156.216 174.009 155.784 173.985 155.328L173.678 153.767C173.577 153.438 173.445 153.143 173.281 152.882C173.122 152.62 172.934 152.406 172.718 152.24C172.5 152.069 172.25 151.962 171.968 151.919C171.691 151.869 171.379 151.897 171.031 152.003C170.661 152.115 170.363 152.291 170.137 152.53C169.91 152.769 169.741 153.055 169.628 153.388C169.521 153.719 169.465 154.083 169.46 154.481C169.455 154.878 169.494 155.29 169.578 155.715Z" fill="#1A191D"/>
<path d="M187.428 152.555L186.67 144.219L188.636 143.239L189.13 153.574L187.903 154.186L187.428 152.555ZM182.988 146.054L187.967 152.325L188.666 153.806L187.439 154.417L181.014 147.038L182.988 146.054Z" fill="#1A191D"/>
<path d="M202.451 146.019C201.878 146.427 201.301 146.699 200.719 146.834C200.139 146.961 199.579 146.962 199.037 146.839C198.501 146.711 198 146.469 197.535 146.112C197.071 145.754 196.669 145.298 196.33 144.743L196.147 144.443C195.759 143.807 195.496 143.169 195.358 142.528C195.22 141.887 195.197 141.272 195.289 140.683C195.377 140.088 195.577 139.54 195.887 139.039C196.197 138.537 196.603 138.108 197.104 137.751C197.657 137.356 198.201 137.108 198.735 137.007C199.269 136.906 199.781 136.936 200.269 137.098C200.76 137.25 201.22 137.522 201.65 137.911C202.084 138.298 202.48 138.783 202.837 139.369L203.309 140.141L197.327 144.408L196.535 143.11L200.814 140.058L200.727 139.916C200.519 139.597 200.27 139.337 199.982 139.133C199.698 138.926 199.388 138.817 199.052 138.805C198.716 138.794 198.358 138.924 197.976 139.196C197.69 139.4 197.474 139.647 197.33 139.937C197.187 140.219 197.114 140.532 197.113 140.878C197.112 141.223 197.174 141.595 197.301 141.993C197.429 142.383 197.622 142.787 197.878 143.207L198.061 143.507C198.278 143.862 198.525 144.16 198.802 144.401C199.081 144.633 199.379 144.796 199.698 144.892C200.017 144.988 200.344 145.009 200.681 144.955C201.015 144.896 201.347 144.75 201.676 144.515C202.091 144.219 202.407 143.868 202.625 143.461C202.842 143.055 202.973 142.607 203.016 142.116L204.488 142.391C204.477 142.765 204.409 143.165 204.285 143.59C204.159 144.011 203.947 144.432 203.649 144.852C203.356 145.27 202.956 145.658 202.451 146.019Z" fill="#1A191D"/>
<path d="M208.752 130.877L213.81 136.682L212.279 138.145L206.031 130.976L207.492 129.579L208.752 130.877ZM209.625 127.456L210.905 128.952C210.797 129.023 210.684 129.107 210.566 129.204C210.452 129.296 210.342 129.393 210.237 129.494C209.974 129.745 209.778 130.006 209.648 130.276C209.514 130.541 209.443 130.811 209.435 131.087C209.427 131.354 209.475 131.623 209.58 131.895C209.686 132.167 209.841 132.435 210.048 132.699L209.722 133.06C209.329 132.609 209.008 132.151 208.758 131.686C208.507 131.22 208.34 130.761 208.255 130.308C208.175 129.85 208.192 129.416 208.308 129.006C208.429 128.591 208.66 128.22 209.003 127.892C209.096 127.803 209.204 127.717 209.325 127.633C209.45 127.545 209.55 127.486 209.625 127.456Z" fill="#1A191D"/>
<path d="M217.301 118.926L218.476 119.932L215.075 124.076L213.9 123.07L217.301 118.926ZM213.112 120.36L214.456 118.722L221.453 124.713C221.675 124.904 221.873 125.019 222.045 125.058C222.216 125.089 222.37 125.063 222.507 124.98C222.644 124.896 222.777 124.775 222.907 124.617C223 124.503 223.083 124.389 223.155 124.273C223.227 124.158 223.282 124.063 223.321 123.988L224.555 125.033C224.484 125.203 224.389 125.392 224.272 125.6C224.158 125.803 224.006 126.02 223.816 126.251C223.508 126.627 223.17 126.905 222.803 127.084C222.432 127.26 222.03 127.301 221.598 127.209C221.166 127.117 220.703 126.859 220.209 126.436L213.112 120.36Z" fill="#1A191D"/>
<path d="M222.859 103.408L223.765 101.493L234.291 106.051L236.067 107.04L235.248 108.772L222.859 103.408ZM234.363 99.324L234.532 99.3974C235.178 99.6767 235.738 100.005 236.213 100.384C236.686 100.754 237.053 101.169 237.316 101.627C237.581 102.08 237.725 102.563 237.748 103.077C237.767 103.583 237.648 104.109 237.39 104.655C237.137 105.19 236.814 105.612 236.422 105.921C236.03 106.229 235.582 106.437 235.077 106.545C234.576 106.646 234.025 106.667 233.426 106.605C232.827 106.543 232.196 106.411 231.535 106.207L230.994 105.973C230.392 105.63 229.872 105.264 229.434 104.876C228.99 104.486 228.642 104.077 228.391 103.65C228.137 103.214 228.001 102.756 227.982 102.276C227.965 101.79 228.082 101.282 228.333 100.753C228.593 100.202 228.93 99.7637 229.343 99.4384C229.759 99.1078 230.232 98.8883 230.763 98.7798C231.288 98.6691 231.855 98.6624 232.463 98.7598C233.074 98.8519 233.707 99.04 234.363 99.324ZM233.627 101.312L233.457 101.239C233.065 101.069 232.681 100.941 232.307 100.856C231.928 100.768 231.571 100.741 231.237 100.775C230.906 100.804 230.607 100.911 230.338 101.094C230.067 101.271 229.845 101.541 229.672 101.907C229.512 102.246 229.433 102.563 229.436 102.858C229.439 103.153 229.504 103.426 229.631 103.679C229.757 103.932 229.933 104.164 230.156 104.376C230.383 104.582 230.644 104.769 230.941 104.935L232.401 105.568C232.827 105.694 233.245 105.754 233.657 105.748C234.065 105.733 234.439 105.627 234.779 105.429C235.113 105.229 235.387 104.904 235.6 104.454C235.768 104.099 235.837 103.769 235.807 103.462C235.777 103.156 235.667 102.875 235.476 102.62C235.283 102.358 235.026 102.119 234.707 101.904C234.39 101.684 234.03 101.487 233.627 101.312Z" fill="#1A191D"/>
<path d="M243.49 88.1212C243.297 88.7973 243.011 89.3844 242.631 89.8825C242.248 90.3737 241.798 90.7667 241.282 91.0616C240.768 91.3509 240.207 91.5373 239.599 91.6209C238.992 91.7044 238.37 91.6773 237.734 91.5394L237.391 91.4648C236.664 91.307 236.035 91.0599 235.505 90.7235C234.974 90.3871 234.553 89.9876 234.241 89.525C233.924 89.0612 233.726 88.5516 233.647 87.9961C233.569 87.4405 233.614 86.867 233.783 86.2754C233.97 85.6218 234.245 85.0742 234.608 84.6325C234.971 84.1908 235.402 83.8534 235.9 83.6205C236.394 83.3807 236.942 83.2421 237.542 83.2049C238.144 83.162 238.78 83.2133 239.45 83.3586L240.335 83.5506L238.317 90.6158L236.831 90.2934L238.275 85.2396L238.111 85.2042C237.736 85.1347 237.366 85.1321 237.001 85.1965C236.637 85.2553 236.317 85.3982 236.039 85.6251C235.762 85.8521 235.558 86.1909 235.43 86.6417C235.333 86.9797 235.322 87.2973 235.395 87.5944C235.464 87.8846 235.611 88.1469 235.836 88.3812C236.061 88.6155 236.354 88.8227 236.716 89.003C237.074 89.1764 237.494 89.3153 237.975 89.4196L238.318 89.4942C238.725 89.5824 239.118 89.6108 239.498 89.5796C239.874 89.5414 240.221 89.4433 240.54 89.2851C240.859 89.1269 241.136 88.9118 241.372 88.6399C241.602 88.3667 241.772 88.0357 241.883 87.647C242.023 87.1568 242.048 86.6984 241.957 86.2718C241.866 85.8452 241.677 85.4513 241.391 85.0901L242.754 84.246C242.99 84.5065 243.197 84.8238 243.376 85.1977C243.55 85.5703 243.654 86.0029 243.69 86.4953C243.727 86.982 243.661 87.524 243.49 88.1212Z" fill="#1A191D"/>
<path d="M236.973 71.0265L238.517 71.1096L237.778 76.4198L236.234 76.3367L236.973 71.0265ZM234.121 74.6795L234.413 72.5815L243.611 73.0762C243.903 73.0919 244.134 73.0634 244.303 72.9907C244.468 72.9118 244.587 72.7984 244.66 72.6503C244.734 72.5022 244.785 72.3266 244.813 72.1235C244.833 71.9784 244.844 71.8387 244.845 71.7043C244.846 71.5698 244.843 71.4615 244.837 71.3793L246.453 71.4575C246.482 71.6344 246.5 71.8401 246.509 72.0744C246.518 72.3029 246.502 72.5652 246.461 72.8612C246.394 73.3429 246.25 73.7648 246.029 74.1271C245.801 74.4891 245.477 74.764 245.056 74.9519C244.635 75.1397 244.1 75.2162 243.45 75.1812L234.121 74.6795Z" fill="#1A191D"/>
<path d="M237.463 60.1773L239.005 60.0563L238.913 65.4168L237.371 65.5378L237.463 60.1773ZM235.075 64.1735L235.112 62.0556L244.295 61.3348C244.587 61.3118 244.812 61.2532 244.971 61.1588C245.125 61.059 245.229 60.9309 245.284 60.7744C245.34 60.618 245.369 60.4372 245.373 60.2322C245.375 60.0857 245.369 59.9458 245.354 59.8124C245.338 59.6791 245.323 59.572 245.307 59.4914L246.919 59.3561C246.968 59.5277 247.012 59.7291 247.048 59.9602C247.085 60.1855 247.101 60.4475 247.096 60.7463C247.088 61.2325 246.996 61.6698 246.82 62.058C246.638 62.4467 246.35 62.7619 245.955 63.0035C245.56 63.2451 245.038 63.3914 244.39 63.4423L235.075 64.1735Z" fill="#1A191D"/>
<path d="M246.043 47.6216C246.133 48.3188 246.104 48.9753 245.955 49.5911C245.799 50.2024 245.545 50.753 245.191 51.2431C244.837 51.7273 244.399 52.1382 243.879 52.4757C243.359 52.8133 242.782 53.0563 242.148 53.2047L241.806 53.2849C241.082 53.4547 240.412 53.501 239.796 53.4238C239.18 53.3465 238.64 53.1649 238.173 52.8791C237.701 52.5945 237.32 52.2169 237.029 51.7461C236.739 51.2753 236.554 50.7349 236.474 50.1248C236.387 49.4508 236.421 48.8349 236.578 48.2773C236.735 47.7196 236.994 47.2277 237.356 46.8016C237.711 46.371 238.155 46.0095 238.687 45.7171C239.219 45.4189 239.818 45.1916 240.486 45.0351L241.367 44.8286L242.315 52.1148L240.835 52.4618L240.157 47.2498L239.994 47.288C239.625 47.3865 239.287 47.5436 238.979 47.7593C238.672 47.9691 238.436 48.2369 238.273 48.5626C238.109 48.8883 238.058 49.2836 238.118 49.7484C238.164 50.097 238.278 50.3905 238.462 50.6288C238.64 50.8627 238.877 51.0375 239.174 51.1535C239.472 51.2694 239.821 51.3313 240.221 51.3392C240.616 51.3425 241.052 51.2881 241.532 51.1757L241.874 51.0955C242.279 51.0006 242.648 50.8571 242.982 50.6652C243.309 50.4687 243.587 50.23 243.815 49.9491C244.043 49.6681 244.21 49.3533 244.318 49.0048C244.42 48.6576 244.444 48.2836 244.392 47.8827C244.326 47.3772 244.168 46.9503 243.917 46.602C243.666 46.2536 243.339 45.977 242.936 45.7721L243.844 44.4185C244.162 44.5537 244.476 44.7525 244.786 45.0151C245.091 45.2789 245.357 45.6268 245.583 46.0587C245.809 46.4847 245.962 47.0057 246.043 47.6216Z" fill="#1A191D"/>
<path d="M235.651 36.9894L242.792 34.1106L243.391 36.1424L234.571 39.6982L233.999 37.7591L235.651 36.9894ZM233.093 34.8987L234.924 34.1795C234.939 34.3119 234.962 34.4533 234.994 34.6039C235.025 34.7488 235.061 34.8915 235.102 35.032C235.205 35.3805 235.344 35.6671 235.519 35.8918C235.69 36.1187 235.891 36.286 236.123 36.3935C236.348 36.4976 236.6 36.5471 236.878 36.5419C237.156 36.5366 237.453 36.48 237.768 36.372L237.937 36.8225C237.382 37.046 236.852 37.1968 236.346 37.275C235.841 37.3532 235.375 37.3522 234.95 37.272C234.524 37.1861 234.159 37.0123 233.857 36.7505C233.554 36.4831 233.335 36.1218 233.201 35.6665C233.164 35.5429 233.136 35.4064 233.116 35.2571C233.095 35.1022 233.087 34.9828 233.093 34.8987Z" fill="#1A191D"/>
</svg>
